<?xml version="1.0" encoding="utf-8"?>
<!-- Generator: Adobe Illustrator 16.0.0, SVG Export Plug-In . SVG Version: 6.00 Build 0)  -->
<!DOCTYPE svg PUBLIC "-//W3C//DTD SVG 1.1//EN" "http://www.w3.org/Graphics/SVG/1.1/DTD/svg11.dtd">
<svg version="1.1" xmlns="http://www.w3.org/2000/svg" xmlns:xlink="http://www.w3.org/1999/xlink" x="0px" y="0px" width="780px"
	 height="300px" viewBox="0 0 780 300" enable-background="new 0 0 780 300" xml:space="preserve">
<g id="skin">
	<polygon fill="#666666" points="461.537,49.876 585,122.142 595.064,195.933 577.698,293.738 504.769,342.667 428.748,332.997 
		418,286.214 389.053,163.147 376.25,103.875 389.053,70.75 413.186,48.002 	"/>
</g>
<g id="hair_1">
	<path d="M447.67-0.735c0,0,52.669-32.059,122.129,44.271c7.633,12.213,52.667,103.046,58.773,135.868s6.106,24.426,14.503,35.875
		s3.054,11.448,25.188,10.686c22.137-0.763,96.939,9.923,142.738,52.668c-19.083-6.106,9.158-5.343-42.746-9.159
		c-17.555-0.764-22.898-0.764-22.898-0.764s40.764,6.105,62.591,17.556c-27.479-5.343-37.401-7.632-63.354-6.105
		c17.557,7.633,41.219,15.267,16.793,32.059c2.29-7.219-5.343-25.952-35.875-26.716s-58.012,10.686-89.307,5.343
		c13.74,7.633,30.533,17.556,28.242,25.952c-2.289,8.396-24.447-5.343-24.447-5.343l-72.491,8.061c0,0-22.898,8.731-19.846-49.279
		c10.686-21.372,18.318-66.407,12.976-75.566c9.923-3.816,26.715-23.342,15.266-38.387c-3.816-6.648-3.052-10.421-18.318-1.283
		c-3.054-11.471,4.08-11.665-0.253-16.665s-2.667-16.333-6-19s-15.332-6-54.666-28.333s-73-10-96-25.667
		c-0.667,8.667-20,28-10.667,66.333c0.667,6,2.667,17.227,1.667,24.613c0.666,7.72,5.333,38.054,9.333,43.387
		c-4.333-5-46.334-62-34.667-100.667c5-23.667,19.666-71.331,35-79.331C410,12.338,423.007-3.808,447.67-0.735z"/>
</g>
<g id="hair_2">
	<path d="M382.333,166.334c0,0,1.001,38.667-3.333,54s-8,37.667-7,53s4.334,32,15,42s76.333,0,76.333,0l9.667-3
		c0,0,4.667-19.667,0-22.667c-5,0-12.667,1.667-23.667-12C446.666,274,435.334,260,431,254s-22.959-34.341-28.667-50.999
		s-11.667-25-11.667-25L382.333,166.334z"/>
</g>
<g id="hair_5">
	<path d="M390.9,85.25c0,0-2.35,23,0,28.5c-4.4-8.5-7.65-21.76-7.65-27.255c0.75,12.255,2.801,30.039,7.65,33.647
		c-7.9-8.392-10.4-19.681-11.65-27.412c0,7.02,7.551,31.519,11.65,37.382c-6.65-3.112-12.65-19.862-14.65-28.237s0-16.625,0-16.625
		l6.881-7.25l5.922-6L390.9,85.25z"/>
	<path d="M570,156.412c0,0-7.375-7.537-11.625-1.35c-0.5,1.688-1.188,2.188-1.938,5.938c-0.5-4.75-1.053-14,3.864-15.375
		c-6.333-1.125-6.692-3.125-6.692-3.125s5.234,1.411,9.684-0.544c-4.551-1.206-6.297-3.456-9.672-1.581
		c2.875-4.125,5.502-5.374,8.314-4.625s-4.937-3.062-8.312,1.719c-0.625-2.802-1.405-6.469,3.548-8.969S570,130.112,570,130.112
		V156.412z"/>
	<path d="M553.163,27.002c0,0,35.504,29.162,38.504,41.748c-5.334-7.414-32.674-40.748-38.504-38.748S553.163,27.002,553.163,27.002
		z"/>
	<path d="M565.333,46.002c0,0,31.334,25.162,29.667,31.748c-7-8.081-19.667-22.086-34.667-18.25"/>
	<path d="M613,138.998c8.513,6.041,15.259,12.058,20.583,21.409c2.83,4.97,3.705,10.787,6.149,15.916
		c1.615,3.389,3.957,4.768,6.49,6.976c-3.572-1.984-8.458-4.094-10.564-7.949c-2.199-4.025-2.601-9.051-4.407-13.257
		c-2.176-5.064-4.663-8.887-9.178-12.103c-4.847-3.452-9.225-3.443-14.74-4.992"/>
	<path d="M624.333,188.75c0,0,9.667,13.073,29.001,11.825c-6.668,2.752-20.333,2.439-31.667-7.404"/>
	<path d="M650.5,227.999c0,0,24.5-9.999,44.5-3.999c-7,2.5-18.333-5.094-41.666,8.453"/>
	<path d="M736,239.025c0,0,34.5-12.865,68,13.305c-26.5-8.83-32-21.164-63.5-7.747"/>
	<path d="M739,278.75c0,0,66.5,13.807,11,41.028C760,305,785.5,291,714,278.75"/>
	<path d="M692.5,275.332c0,0,34,15.195,7.5,23.932c3-9.264,16.5-10.6-14-23.932"/>
	<path d="M629.5,278.75c0,0,0,13.75,21,15.75c-16,0.5-24.166-2.5-28.833-13.5"/>
	<path d="M617.5,284.214c0,0,3,9.313,22.5,15.05c-16.5-2.264-28.334-4.461-32.667-12.612"/>
	<path d="M601.5,286.651"/>
	<path d="M553.163,278.75c0,0-26.663,23.25-13.663,45.75c-6.5-16.5-12.588-15.836,7.956-49.168"/>
	<path d="M761,248.625c0,0,33-1.625,63.5,30.125c-17-10.75-43-21.09-63.5-21.42s22.5,6.351,22.5,6.351s31.5,10.653,41,25.986
		c-14-6.667-27-22.167-50-23.167"/>
	<path d="M385.5,180.666c0,0-9,43.529-30,53.682c17-8.348,33.651-32.452,33.553-45.598"/>
	<path d="M368,120.142c0,0-4,17.108,0,28.983c-5-7.125-3.555-19.625-1.777-31.625"/>
</g>
<g id="eyebrows">
	<path d="M426.499,133.836"/>
	<path d="M430.5,128.094c0,0-3.625-1.984-5.5-2.734c-0.125,1,0,0.891,0,0.891V127c0,0-1.375-1.031-2.625-1.641
		c0,0,0.5,0.469-0.625,1.367c0,0,0.25-0.258-1.625-1.367c-1,0.766-2-0.609-3.375-1.109c-1.5,0.75-2.5,0.625-4.375,0
		c-2.125,1.125-3,0-4.125,0c-2,0.75-0.332,0.375-4.041,0c-3.834,0.875-1.064,1.375-4.637,0.875
		c-3.572,0.875-3.697,1.438-5.072,2.969c-0.75,2.531-1.209,4.079-0.667,5.743c1.042,1.039,1.167,1.739,1.167,2.139
		c1.5-1.6,0.375-4.1,6.75-2.975c0.5,0.875,1.543-1.5,2.459-1.25c1.541,1.625,2.541,0.625,1.541,1.625s1.25-2.25,2.5-1.625
		c-0.5,1.5-0.5,1.5-0.5,1.5s1.875-1.25,1.875-1.5s0.375,0.875-0.125,1.5s1.125-0.75,1.875-0.875s0.875,1.423,0,1.461
		s2-0.336,2.25-0.711s0.875-0.077,0.375,0.711s1.125-0.836,1.875-0.961s0.625,0.173-0.125,0.961s1.75,0.586,2.375,0
		s0.625-0.586,0.625-0.586s0.875-0.327,0.125,0.586s1.625-0.539,2.25,0s1.5-0.336,0.625,0.539s1.625,0.5,2.25,0.125
		s2.125,0,1.625,0.625s0.625,0.625,1.75-0.125s2.5-0.5,2.875,0.125C431.875,132.75,437,136.938,430.5,128.094z"/>
	<path d="M458.313,130.938c0.125-1.875-0.156-7.531,2.344-9.031c0.625,1.25-0.141-0.078,0.609,1.297
		c0.75-2.125,0.742-2.102,0.742-2.102s-0.379,1.512,0.746,2.012c0.625-1.25,0.248-2.744,1.623-3.494
		c0.5,1.875,0.499,1.878,0.499,1.878s0.798-1.999,1.337-3.374c0.537,2.75,0.537,2.75,0.537,2.75s0.25-1.75,1.125-3.375
		c0.75,1.875,0.75,1.875,0.75,1.875s0-2.125,1.125-3.125c0.5,2.375,0.563,2.375,0.563,2.375s1.688-3,2.688-3.875
		c0,2.625,0,2.25,0,2.25s0.898-2.875,2.074-3.25c0.301,0.875-0.676,1.5,0,2.5c1.676-3.375,1.676-3.375,1.676-3.375
		s-0.447,1.875,0.464,2.75c1.036-2,0.719-2.728,3.036-4.125c-0.25,1.75-0.173,2.501,0.52,3.254c3.355-3.629,7.73-5.03,15.98-5.142
		c0.125,1.013-0.25,1.013,0.75,1.888c1.658-1.422,4.745-3.204,3.625-1.375s-1.12,1.829-1.12,1.829s1.87-2.729,4.37-2.341
		c0.875,0.388-0.375,0.638,0.875,1.638s3.25-0.75,3.25-0.75s-0.625,0.875,0.75,2s1.375,1.125,1.375,1.125s0.75,1.375,1,2.625
		c1.75-0.75,3.75,0.25,7.125,2.375c3.125,2,8.125,7.125,9.875,9.875c-4.375-1.375-3-3.375-8.875-4.25
		c-2.625,0.75-2.625,0.75-2.625,0.75s0.625-1.375-0.25-2s-1.625-0.375-1.625,1.25c-0.75-0.25-0.875-3.125-1.875-2.25
		s-0.5,0.375-2.375-1.25s-0.25-1-3.125-1.5s-9.375-3.625-20.5-0.125c-2,0.75-2,0.75-2,0.75s-0.5-0.375-0.25-1.25
		c-1.875,1.625-1.875,1.625-1.875,1.625s0-2.125-1.25-0.625s-1.25,1.5-1.25,1.5s-0.518-2.841-1.884-0.983S477.5,122,477.5,122
		s-1-1.125-3.125,1.125s-2.125,2.25-2.125,2.25s0.125-1.5-2.5,0.875s-2.625,2.375-2.625,2.375s0.875-2.5-1.5-0.125
		S460.625,129.875,458.313,130.938z"/>
	<path d="M455.25,135"/>
</g>
<g id="nose_1">
	<path d="M475.074,189.5c0,0,10.074,8.75,0,20.75C478.25,207.25,484.648,198,475.074,189.5z"/>
	<path d="M435.313,193.834c0,0-3.354,8.999,0,16.416C433.667,207.334,431.46,202.168,435.313,193.834z"/>
	<path d="M456.667,211.334c0,0,0.333-4.333,4.833-5c2.167,0.166,11.5,1,5.5,5C465.333,211,461.334,209.001,456.667,211.334z"/>
	<path d="M446,213.167c0,0-2.833-0.501-5-2.917c-1.333-1.083-2.167-0.166-0.667,1.459C441.5,213.334,444.833,214.834,446,213.167z"
		/>
	<path d="M560.333,180.666c0,0-4.583,72.666-45.958,94.666C518.667,271.999,552.333,247.666,560.333,180.666z"/>
	<path d="M473,289.667c0,0,27.667,20.663,24.667,41.33C499.333,326.33,500.33,306.429,473,289.667z"/>
</g>
<g id="mouth_2">
	<path fill="#333333" d="M497.632,235.791c0,0-7.634,21.25-35.383,23.395c-8.582-0.688-15.85-0.701-20.966-15.861
		c6.883-9.994,7.216-15.828,22.05-5.244C483,236.33,497.632,235.791,497.632,235.791z"/>
	<path fill="#1A1A1A" d="M459.833,235.791c0,0-5.313-5.732-11.667-2.461c-3.166,1.5-5.933,4.941-8.633,9.221
		c3.134,2.113,20.782-0.721,23.291-1.221S459.833,235.791,459.833,235.791z"/>
	<path fill="#1A1A1A" d="M493.271,235.385c0,0-18.512-4.374-24.289-4.708c-3.481-0.004-7.51-3.504-11.998,5.828
		c-0.316,8.658,0.387,5.864,14.618,3.012c9.042-0.151,23.078-1.159,23.065-3.29C494.663,235.589,493.271,235.385,493.271,235.385z"
		/>
	<path fill="#1A1A1A" d="M496.167,238.195c0,0-1.487,12.255-23.834,19.135c2.334-5,1.321-14.183,10.666-18.379
		c8.716-1.287,12.502-2.446,12.502-2.446L496.167,238.195z"/>
	<path fill="#333333" d="M465.021,241.715c0,0-2.134,15.115,2.256,16.782c-2.944,0.833-8.612,1-11.611,0
		c1.834-2.5,3.809-14.61,0.833-15.44C462.242,242.356,465.021,241.715,465.021,241.715z"/>
</g>
<g id="mouth">
	<path d="M486.899,234.348c0,0,7.352,1.483,11.476,0.149c-1.876,2.5-2.247,6.707-4.58,9.207c0-4.167,2.705-6.708-3.462-8.041"/>
	<path d="M495.501,241.715c0,0-7.336,9.115-12.502,10.615C484.499,251.33,490.003,247.933,495.501,241.715z"/>
	<path d="M442.767,238.08c0,0-0.934,1.917-4.434,2.25c0.333,1.667,3.267,4.154,4.434,8.295
		C442.434,244.433,439.867,241.83,442.767,238.08z"/>
	<path d="M474.908,239.584c0,0-0.158-0.125-1.324-1.543c-1.5,0.75-1.458-0.563-2.292-1.563c-1,3-2.647,2.928-2.647,2.928
		L465.166,240H463h-3v1h-2v-1l-2.334,1.715l-3.5,0.836c0,0-0.5,1.065-4,0.506c2.667,1.106,4.167,1.774,6.5,1.44
		c1.167-0.667,3.575-1.5,6.871-0.667c0.462-1,0.63-0.047,1.796-0.773s2.334-0.952,5-0.506c0.833-1.388,2.833-1.784,3.833-0.836
		C472.999,240.83,472.483,239.171,474.908,239.584z"/>
	<path d="M493.271,236.505c0,0-3.938,1.158-10.271,1.575c-4.333,0.417-11.166,1.15-16.333,2.45s-12.833,1.8-16.833,1.8
		s-6.585,0.763-8.55,0.221c2.883,0.779,8.382,0.506,15.216,0.506s14.151-3.826,18.409-2.526c3.591-0.867,12.259-2.367,14.342-2.45
		S491.376,238.058,493.271,236.505z"/>
	<path d="M463.333,243.057c0,0-0.833,5.172,0,7.723C461.328,246.536,462.792,243.958,463.333,243.057z"/>
	<path d="M455.666,245.163c-2.146,2.404-2.167,6.651-2.167,9.754c0.287-3.176-1.267-7.131,2-9.254"/>
	<path d="M471.333,240.163c0.264-0.944,0.568-3.397-0.347-3.937c0.028,1.144,0.013,2.291,0.013,3.437"/>
	<path d="M464.166,241.33c-1.617-0.409-3.073-1.272-4.004-2.713c-0.696-1.077-0.643-2.234-1.296-3.232
		c-0.153,3.083,2.169,4.658,4.8,5.778"/>
	<path d="M509.5,278.75c0,0-14.084,10.105-37.167,10.928C483.75,287.5,490.25,288,509.5,278.75z"/>
</g>
<g id="eyes_4">
	<path fill="#B3B3B3" d="M423.454,151.001c0,0-11.428,14.564-19.245,11.499c-3.459-3.75,1.123-11.666,1.123-11.666l9.668-1.077
		L423.454,151.001z"/>
	<path fill="#B3B3B3" d="M506.375,140.375l-10.196,0.958l-11.929,0.542l-3.25,5.438l3.25,1.813c0,0,17.676,0.587,22.838-4.269
		C508.213,141.932,506.375,140.375,506.375,140.375z"/>
</g>
<g id="eyes_3">
	<path fill="#808080" d="M408.25,163.5c0,0,15.001-12.918,9.75-14.375c9.749,2.043,14.08,2.379,11.415,10.002
		C427,161.5,418.002,164.502,408.25,163.5z"/>
	<path fill="#808080" d="M496.179,136.053c0,0-15.679,7.197-11.929,13.072c-5.274,0-4.896,0.624-7.036-3.5
		C479.209,140.999,487.139,136.088,496.179,136.053z"/>
	<path fill="#808080" d="M500.092,137.469c0,0,5.076,5.246,2.991,7.387c1.917-1.356,7.597-2.647,5.667-6.106
		C503.75,136.875,502.374,137.683,500.092,137.469z"/>
</g>
<g id="eyes_1">
	<path d="M434.999,158.251c0,0-2.75-4.583-7.25-7.083c-1.25-0.667-1.417-1.084-2.167-2.167c-0.666,0.5-0.332,0.917-0.916,1.25
		c-0.584-0.417-0.334-1.333-1.834-2.167c-0.083,0.583,0.418,1.083-0.916,1.583c-0.5-2.083,0.082-2.917-0.834-4.25
		c-0.25,1,0.583,3-1,3.667c-0.333-2-0.916-4.5-0.916-4.5s0.832,1.833-1.584,3.667c-0.416-1.333-0.416-4.75-1.166-6.167
		c-0.084,1.167,1.333,3.166-0.417,5.583c-0.917-1.583-1.917-4.917-3.167-6.167c0.834,1.833,1.916,3.417,1.25,6
		c-1.416-1.75-1.749-1.417-2.416-3.667c-0.167,1.083,0.25,3,1.083,3.833c-1.75-1.083-3.083-3-4.25-4.833
		c0.25,1.75,1.417,5.5,2.667,6.333c-1.084-0.083-2.416-2-4.5-5.333c-0.417,0.833,1.832,5.833,3.166,6.042
		c-2.416-0.375-4.834-4.625-5.75-6.208c0.417,1.5,0.584,5.083,2.917,6.583c-1.083,0-1.417-0.251-2.917-1.083
		c-0.083,0.417,1.833,1,1.25,1.667c-0.916,0.667-1.333,0.334-2.083,0.334c0.25,0.583,0.667,0.75,0,1.5
		c-1.5,0.083-2.583-0.25-3.333-1.084c0.166,0.75,1.5,1.5,1.333,2.667c-1.167,0.25-1.916-0.083-3.083-0.667
		c0.5,0.584,1.832,0.667,1.666,2.167c-0.833-0.333-0.749-0.252-2.416-0.751c0.25,0.418,3.167,1.168,2.5,2.168s-4.417-1.584-5.417-3
		c0.083,0.916,2,4.332,4.083,4.666c-2,0.167-2.554,1.417-4.985,0.417c0.652,0.833,5.235,2.166,5.985,1.583
		c-2.25,0.584-2.749,0.951-4.833,0.143c0.416,0.941,3.999,2.19,5.416,1.107c-1.75,1.25-2.083,1.084-3.833,1.167
		c4.5-0.333,4.583,0.417,4.583,0.417s-2.5,2.334-1.25,3.75c0.584-1.167,1.5-4.083,3.417-3.5c0.5,0.916-0.834,3.166-0.167,4.166
		c0.667-1.75,1.001-3.749,2.834-3.416c0.083,1.583-0.75,2.334-0.25,3.75c0.75-2.167,0.167-3.5,1.25-3.75
		c0.083,1-0.834,2.25-0.334,3.75c0.5-1.084,0.166-3.25,2.25-3.417c-0.083,1.25-0.917,1.917-0.25,2.917
		c0.917-1.417,1.751-3.666,3.834-3.5s7.5-0.666,9.833-1.5c-0.917,0-20.5,1.916-18.75-6.084c0.5-1.5-1.201-4.237,8.583-6.416
		c1.584-0.417,7.166-2.25,14.5,1.5C428.332,152.918,426.999,150.418,434.999,158.251z"/>
	<path d="M429.415,150.584c0,0-14.917-15.25-30.5,0.417C405.249,146.667,413.748,138.835,429.415,150.584z"/>
	<path d="M432.332,159.501c0,0-5.084-1.001-7.167,1.583C425.999,159.918,428.582,158.418,432.332,159.501z"/>
	<path d="M469.688,154.313c0,0,4.281-16.456,23.156-18.306c3-0.85,17.078-2.116,24.078,6.509c-2.125,0.125-7.148-5.32-23.711-5.445
		c-1.813,0.5-10.688,1.93-18.137,12.93c3.551,0,3.926,0,3.926,0s-2.102,0.25-3.926,2C475.125,154,471.375,153.625,469.688,154.313z"
		/>
	<path d="M514.375,142.5c0,0,7.75-1.375,8.125-4.625c-1.625,1.125-1.7,1.792-4.5,2.313c2-1.813,2.5-2.438,2.5-3.313
		c-1.125,0.75-1.617,2.874-4.125,2.813c1.5-1.688,1.5-2.813,1.5-2.813s1.12,0.006-1.625,1.25s-1.875,0.125-1.875,0.125
		s1.75-2.326,0.875-2.851c-0.625,0.476-0.683,2.084-2.625,2.226c0.5-1.625,0.5-2.625,0.5-2.625s0.721,2.22-2.125,2
		c-0.875-1.75-0.875-1.75-0.875-1.75s-1.9,2.65-3.075,1.2c-0.55-1.575,0-3.325,0-3.325s-0.907,2.996-3.3,3.75
		c-2-2.125-2.75-5.938-2.75-5.938s0.684,3.861-0.908,4.462c-1.842-1.274-3.484-2.899-3.913-6.024c0,0,1.071,4.924-0.679,6.024
		c-0.625-1.024-1.533-4.274-0.829-6.024s-2.312,3.049-1.366,6.024c-1.68-3.649-1.68-5.287-1.68-5.287s-2.5,5.263-1.125,6.888
		c-1.25,0.5-1.25,0.5-1.25,0.5l-2.375-1.525c0,0-0.612,0.791,0,1.9s-1,0.75-1,0.75l-1-6.875c0,0-1.75,4.125,0,6.75
		c-1.625-1-1.998-4.664-1.998-4.664s-1.143,5.603-0.627,6.789S492.125,129.375,514.375,142.5z"/>
	<path d="M514.375,142.5c0,0-10.5,3.252-15.375,8.501c-2,0.249-4.75,0.624-8.625-0.501c1.375-0.25,5.045,1.052,8.5-0.625
		C500.75,148.375,508.5,143.125,514.375,142.5z"/>
	<path d="M514.375,139.25c0,0-18.727-20.873-39.301,2.251C485.875,133.625,494.125,123.5,514.375,139.25z"/>
	<path d="M477.214,145.625c0,0,0.237,2,1.762,3.5C477.5,148.625,477.66,148.217,477.214,145.625z"/>
	<path d="M508.75,138.75c0,0-1.663,6.079-3.981,7.442c12.153-4.691,9.606-3.49,9.606-3.49L512.25,140L508.75,138.75z"/>
	<path d="M434.299,157.215c0,0,1.699,2.453,0.7,3.869c-1.624-0.084-2.124,0-2.124,0S435.473,159.93,434.299,157.215z"/>
	<path d="M511.666,142.5c0,0,2.363,0.583,2.932,3.125C514.833,141.5,514.166,141.333,511.666,142.5z"/>
	<path d="M510.666,142.5c0,0,2.667,2.43,1,4.965c-0.667-1.798-0.203-3.74-1.983-4.965S510.666,142.5,510.666,142.5z"/>
	<path d="M508,144.001c0,0-0.315,2.291,1.092,3.312C507.499,147,506.857,146.064,508,144.001z"/>
	<path d="M509.499,144.167c0.097,1.339-0.888,2.749-1.223,3.987c1.472-0.89,2.034-2.574,1.39-4.32"/>
	<path d="M511.666,142.167c2.011,0.439,2.827,3.729,1.838,5.288c-0.393-1.704-0.829-3.315-1.338-4.955"/>
	<path d="M515.833,141.333c0.04,1.816,0.334,2.956,1.482,4.303c-1.569-0.241-2.766-3.091-1.482-3.97"/>
</g>
<g id="eyes_2">
	<path d="M486,141.555c0,3.56,2.886,6.445,6.445,6.445h5.109c3.56,0,6.445-2.886,6.445-6.445v-0.109c0-3.56-2.94-5.695-6.5-5.695
		l-4.031-0.351c-3.56,0-7.469,2.486-7.469,6.046V141.555z"/>
	<path d="M410,154.582c0,3.545,2.873,6.418,6.418,6.418h3.164c3.545,0,6.418-2.873,6.418-6.418v-0.164
		c0-3.545-1.955-4.584-5.5-4.584l-6.5-0.708c-3.545,0-4,1.748-4,5.293V154.582z"/>
</g>
<g id="ear_1">
	<path d="M567.47,151.001c0,0,1.03,5.71,0.28,9.104c-0.5,2.395-0.25,3.813-3.5,6.229c-0.5,2.416-2.666,11.416,1.917,5.666
		c1.833-2.25,2.083-2.914,4.833-3.582c3-1.918,4.75-2.82,3.25-5.494c0.75-2.674-1.5-16.731-1.5-16.731L567.47,151.001z"/>
</g>
<g id="earring">
	<path fill="#CCCCCC" d="M563,190.25c1.986-2.433,7.276-5.911,10.312-3.563c2.346,1.814,2.47,8.693,0.882,11.006
		c-2.068,3.014-7.217,5.547-10.693,3.557c-2.591-1.483-4.831-4.777-2.938-7.317"/>
	<path fill="#CCCCCC" d="M553.625,188.75"/>
	<path fill="#F2F2F2" d="M574.625,189c-1.186-2.214-4.812-1.208-6.5-0.388c-1.73,0.84-2.514,2.348-3.781,3.606
		c-1.527,1.516-2.788,1.521-2.941,3.934c-0.104,1.654,0.721,2.968,1.235,4.423c-1.616-1.249-2.021-2.646-2.388-4.575
		c-0.393-2.067,1.228-3.075,2.226-4.656c1.934-3.062,4.338-4.685,7.74-5.371c1.291-0.261,2.207-0.468,3.135,0.658
		c0.645,0.782,1.122,1.528,1.399,2.494"/>
</g>
</svg>
