<?xml version="1.0" encoding="utf-8"?>
<!-- Generator: Adobe Illustrator 16.0.0, SVG Export Plug-In . SVG Version: 6.00 Build 0)  -->
<!DOCTYPE svg PUBLIC "-//W3C//DTD SVG 1.1//EN" "http://www.w3.org/Graphics/SVG/1.1/DTD/svg11.dtd">
<svg version="1.1" id="Calque_1" xmlns="http://www.w3.org/2000/svg" xmlns:xlink="http://www.w3.org/1999/xlink" x="0px" y="0px"
	 width="49.662px" height="35.593px" viewBox="0 0 49.662 35.593" enable-background="new 0 0 49.662 35.593" xml:space="preserve">
<g>
	<g>
		<path fill="#FFFFFF" d="M7.736,4.723C5.502,5.69,5.855,9.242,5.961,11.184c0.223,4.051,1.077,8.063,1.728,12.06
			c0.544,3.346,1.505,7.008-0.875,9.844c-1.464,1.743-3.405,1.368-4.388-0.653C1.728,31,1.845,29.394,2.29,27.917
			c0.896-2.972,3.934-5.179,6.596-6.429c3.406-1.599,8.832,0.506,11.357-2.777c0.735-0.956,0.333-1.863-0.726-2.101
			c-1.209-0.271-2.401,0.724-3.058,1.617c-1.118,1.518-3.3,6.175-0.406,7c3.102,0.884,4.594-4.427,5.283-6.474
			c-0.325-0.073-0.65-0.146-0.976-0.219c-0.105,1.701-1.286,4.656,1.233,4.939c2.146,0.241,3.525-4.096,3.979-5.567
			c-0.325-0.073-0.65-0.146-0.976-0.219c-0.059,1.292-0.25,3.14,1.365,3.427c1.559,0.278,3.083-1.708,3.988-2.652
			c-0.315-0.089-0.631-0.178-0.947-0.267c-0.032,0.736,0.076,1.357,0.176,2.09c0.034,0.249,0.627,0.29,0.797,0.269
			c1.127-0.139,1.82-0.489,2.687-1.245c-0.313-0.07-0.627-0.141-0.941-0.211c0.743,2.571,3.211,1.242,4.248-0.352
			c1.271-1.953,0.296-3.846-1.563-4.889c-4.986-2.799-11.39-2.73-16.624-0.851c-4.138,1.486-9.857,4.45-12.228,8.318
			c-1.336,2.18,4.297,1.571,4.856,1.525c13.042-1.07,25.708-4.886,38.293-8.25c0.328-0.088-0.546-0.454-0.799-0.386
			c-8.276,2.212-16.526,4.533-24.926,6.245c-4.051,0.826-8.14,1.454-12.253,1.873c-1.14,0.116-5.496,0.827-3.741-1.426
			c1.08-1.386,2.661-2.466,4.067-3.487c4.937-3.585,10.623-5.824,16.724-5.102c2.261,0.268,4.709,0.783,6.588,2.13
			c0.867,0.622,1.303,1.536,1.211,2.588c-0.062,0.701-2.269,4.322-2.89,2.17c-0.075-0.26-0.756-0.373-0.941-0.211
			c-0.63,0.666-1.429,1.042-2.397,1.128c0.266,0.09,0.531,0.179,0.797,0.269c-0.104-0.655-0.159-1.314-0.164-1.979
			c0.013-0.294-0.773-0.448-0.947-0.267c-0.69,0.72-1.388,1.414-2.174,2.03c-1.573,1.234-1.327-1.388-1.286-2.271
			c0.013-0.29-0.889-0.498-0.976-0.219c-0.458,1.48-1.114,2.911-1.98,4.196c-0.182,0.257-0.386,0.496-0.613,0.714
			c-1.156,1.22-1.002-1.253-0.98-1.5c0.069-0.787,0.263-1.554,0.312-2.344c0.018-0.291-0.882-0.496-0.976-0.219
			c-0.613,1.821-1.307,3.629-2.427,5.207c-0.793,1.118-2.276,1.189-2.294-0.397c-0.009-0.777,0.26-1.57,0.5-2.297
			c0.292-0.884,0.732-1.727,1.237-2.505c0.021-0.031,2.504-2.406,2.184-0.64c-0.492,2.713-5.275,2.262-7.195,2.328
			c-3.899,0.133-7.295,2.052-9.738,5.086c-1.972,2.448-2.694,7.523,0.734,9.182c2.437,1.18,4.604-0.925,5.571-2.995
			c1.024-2.189,0.152-5.4-0.199-7.652c-0.596-3.826-1.361-7.628-1.723-11.487c-0.18-1.917-0.77-6.262,1.525-7.255
			C8.876,4.961,7.98,4.617,7.736,4.723L7.736,4.723z"/>
	</g>
</g>
<g>
	<g>
		<path fill="#FFFFFF" d="M9.722,1.678C9.2,2.233,8.884,3.275,9.329,3.967c0.513,0.799,1.733,0.765,2.452,0.299
			c0.638-0.413,0.625-1.357,0.15-1.878c-0.734-0.806-1.927-0.6-2.717-0.033c-0.208,0.149,0.65,0.549,0.896,0.373
			c0.273-0.196,0.562-0.371,0.902-0.408c0.045-0.005-0.068-0.062,0.045,0.03c0.088,0.071,0.142,0.19,0.184,0.292
			c0.177,0.419,0.043,0.907-0.29,1.202c-0.183,0.162-0.509,0.284-0.752,0.283c0.209,0.001,0.111,0.064,0.015-0.117
			c-0.063-0.119-0.088-0.255-0.109-0.386c-0.084-0.54,0.145-1.182,0.513-1.573C10.824,1.833,9.917,1.47,9.722,1.678L9.722,1.678z"/>
	</g>
</g>
</svg>
